# xmcd
#
# Track frame offsets:
#	150
#	20795
#	37655
#	60863
#	81220
#	104210
#	127188
#	147360
#	168048
#	194448
#	218135
#	241458
#	254995
#	277660
#	303155
#	320655
#
# Disc length: 4506 seconds
#
# Revision: 0
# Processed by: cddbd v1.5.1PL2 Copyright (c) Steve Scherf et al.
# Submitted via: audiograbber 1.83.01
#
DISCID=e8119810
DTITLE=YANNI - TA KALYTERA TOU
DYEAR=1900
DGENRE=Acid Jazz
TTITLE0=Santorini
TTITLE1=Marmaid
TTITLE2=Swept away
TTITLE3=True nature
TTITLE4=Acroyali
TTITLE5=Sand dance
TTITLE6=Reflections of passion
TTITLE7=Quite man
TTITLE8=Nightbird
TTITLE9=Keys to imagination
TTITLE10=To the one who knows
TTITLE11=First touch
TTITLE12=Alove of life
TTITLE13=Flight of fantasy
TTITLE14=Aria
TTITLE15=Therain must fall
EXTD=
EXTT0=
EXTT1=
EXTT2=
EXTT3=
EXTT4=
EXTT5=
EXTT6=
EXTT7=
EXTT8=
EXTT9=
EXTT10=
EXTT11=
EXTT12=
EXTT13=
EXTT14=
EXTT15=
PLAYORDER=
